# xmcd
#
# Track frame offsets:
#	150
#	16328
#	29482
#	46811
#	69601
#	88259
#	102040
#	120294
#	139070
#	152949
#	167501
#	182109
#	201012
#	217459
#	231548
#
# Disc length: 3325 seconds
#
# Revision: 0
# Processed by: cddbd v1.5.2PL0 Copyright (c) Steve Scherf et al.
# Submitted via: audiograbber 1.83.01
#
DISCID=d50cfb0f
DTITLE=Chartbuster Karaoke - Essential 4 Disk 22
DYEAR=1900
DGENRE=Karaoke
TTITLE0=Ray Stevens - Guitarzan
TTITLE1=Bobbie Bare - Chicken Every Sunday
TTITLE2=Dolly Parton - Applejack
TTITLE3=Michael Martin Murphy - Wildfire
TTITLE4=Ray Stevens - Ahab The Arab
TTITLE5=K.D. Lang - I'm Down To My Last Cigarette
TTITLE6=Alison Krauss - Baby Now That I've Found You
TTITLE7=Mindy McCready - Maybe He'll Notice Her Now
TTITLE8=Patty Loveless - She Drew A Broken Heart
TTITLE9=Trisha Yearwood - Perfect Love
TTITLE10=Lee Ann Womack - Buckaroo
TTITLE11=Terri Clark - If I Were You
TTITLE12=Martina McBride - Happy Girl
TTITLE13=Mindy McCready - The Other Side Of This Kiss
TTITLE14=Terri Clark - Everytime I Cry
EXTD=
EXTT0=
EXTT1=
EXTT2=
EXTT3=
EXTT4=
EXTT5=
EXTT6=
EXTT7=
EXTT8=
EXTT9=
EXTT10=
EXTT11=
EXTT12=
EXTT13=
EXTT14=
PLAYORDER=
